<svg width="159" height="40" viewBox="0 0 159 40" fill="none" xmlns="http://www.w3.org/2000/svg">
<path fill-rule="evenodd" clip-rule="evenodd" d="M3.98913 4.22468C6.20677 1.95535 9.2874 0.705613 12.664 0.705613C17.8784 0.705613 21.6914 2.9086 22.736 3.58387C22.7833 3.61421 22.8049 3.6713 22.79 3.72581C22.4822 4.86292 21.4567 8.65276 20.9406 10.6109C18.1981 9.06702 15.5705 8.29249 13.4342 8.29352C6.89696 7.94689 3.21974 11.6542 2.56042 15.316C2.32693 16.614 2.4609 17.926 2.93277 19.1297C1.52309 17.1939 0.70587 14.8212 0.70587 12.2999C0.70587 9.25911 1.87178 6.39115 3.98913 4.22468ZM9.12642 24.1914C9.12745 24.1919 9.12822 24.1919 9.129 24.1924L9.47512 24.292L9.47692 24.285L11.7408 15.7763L11.7763 15.6415L11.7465 15.5857C11.736 15.5474 11.7141 15.5163 11.6812 15.4721L11.6097 15.3772L11.4955 15.3445C10.542 15.073 9.78729 14.3887 9.42523 13.4668C9.06291 12.5452 9.14545 11.5374 9.65178 10.702C9.70295 10.6174 9.75772 10.5379 9.81481 10.4613C9.84438 10.4219 9.87601 10.3844 9.90738 10.3466C9.93412 10.3142 9.96087 10.2813 9.98864 10.2499C10.0334 10.2003 10.0802 10.1522 10.128 10.1054C10.1416 10.092 10.155 10.0789 10.1689 10.0658C10.6151 9.64792 11.1941 9.35477 11.8782 9.1848C11.8969 9.18043 11.9162 9.17657 11.9352 9.17194C12.0052 9.15548 12.0759 9.14031 12.1479 9.12642C12.2081 9.11485 12.2685 9.10457 12.3289 9.09531C12.3577 9.09042 12.3865 9.08579 12.4156 9.08142C12.8859 9.01457 13.3534 9.00274 13.7782 9.02022V9.01765C15.7657 9.09711 18.2066 9.86238 20.7179 11.296C20.8794 11.3883 21.0702 11.3996 21.2417 11.3281C21.4129 11.2561 21.5387 11.1119 21.5863 10.9316C22.0877 9.02228 23.1559 5.07481 23.4714 3.91044C23.5665 3.55841 23.4254 3.18863 23.1191 2.99114C22.0337 2.28938 18.0718 0 12.664 0C9.09608 0 5.83596 1.32508 3.48435 3.73121C1.23714 6.03062 0 9.07345 0 12.2999C0 17.8687 3.7523 22.7573 9.12642 24.1914Z" fill="white"/>
<path fill-rule="evenodd" clip-rule="evenodd" d="M15.9464 38.2844C17.3628 37.163 18.3834 35.5571 18.7655 33.6589C19.3929 30.5422 18.2044 26.4322 12.9869 24.2421V24.2424C12.8722 24.185 12.7547 24.1323 12.6336 24.0858C12.9776 22.7908 14.2708 17.9291 14.6285 16.5835C19.5169 18.0441 22.9004 22.5653 22.9004 27.7C22.9004 30.7407 21.7345 33.6085 19.6172 35.7749C18.5675 36.849 17.3227 37.6914 15.9464 38.2844ZM23.6063 27.7C23.6063 22.1278 19.8494 17.2364 14.4704 15.8056L14.1291 15.7148L12.2057 22.9481C11.829 24.3648 11.829 24.3648 11.901 24.4908L11.9724 24.6157L12.1108 24.6551C12.3342 24.7189 12.5459 24.8073 12.7452 24.914C12.7832 24.9344 12.82 24.957 12.8573 24.9788C12.9172 25.0143 12.9766 25.0511 13.0337 25.0904C13.0753 25.119 13.1157 25.1488 13.1558 25.1792C13.2029 25.2152 13.2489 25.2522 13.2942 25.2908C13.3384 25.3288 13.3824 25.3676 13.4246 25.4083C13.4608 25.4427 13.4953 25.4787 13.5297 25.515C13.5742 25.5621 13.6184 25.6091 13.6601 25.6587C13.6894 25.694 13.7164 25.731 13.7444 25.7675C13.7851 25.8202 13.8257 25.8729 13.8627 25.9282C13.8923 25.9725 13.9188 26.0193 13.946 26.065C13.9761 26.1154 14.0083 26.1645 14.0355 26.2165C14.0875 26.3158 14.1348 26.4178 14.177 26.5238C14.214 26.6171 14.2461 26.7125 14.2744 26.81C14.2773 26.819 14.2803 26.8285 14.2829 26.8378C14.3104 26.9357 14.3333 27.0345 14.3513 27.1332C14.3529 27.1417 14.3547 27.1505 14.3557 27.1592C14.3732 27.2574 14.3855 27.3562 14.3935 27.4549C14.394 27.4647 14.3945 27.4745 14.3953 27.4842C14.402 27.5827 14.4048 27.6809 14.4025 27.7789C14.402 27.7864 14.4012 27.7936 14.4012 27.801C14.3984 27.8913 14.3907 27.9808 14.3799 28.0703C14.3778 28.0847 14.3768 28.0991 14.375 28.1135C14.3631 28.2012 14.3462 28.2881 14.3266 28.3745C14.322 28.3956 14.3174 28.4166 14.312 28.4377C14.2911 28.5218 14.2665 28.6054 14.2382 28.6877C14.2315 28.7077 14.224 28.7275 14.2168 28.7476C14.1862 28.8322 14.1523 28.916 14.114 28.9981C14.1078 29.0114 14.1009 29.0245 14.0944 29.0377C14.052 29.1256 14.006 29.2128 13.9545 29.2976C12.4618 31.7624 7.80794 31.5122 2.88819 28.7036C2.72696 28.6116 2.53564 28.6 2.36438 28.6717C2.19312 28.7437 2.06763 28.888 2.02006 29.0683C1.51836 30.9776 0.450431 34.9248 0.134911 36.0894C0.0395089 36.4415 0.18094 36.811 0.486946 37.0087C1.57237 37.7105 5.53424 39.9999 10.9423 39.9999C11.0688 39.9999 11.1951 39.9965 11.3206 39.9909C14.7399 39.9003 17.8539 38.5891 20.1217 36.2684C22.3687 33.9692 23.6063 30.9262 23.6063 27.7Z" fill="white"/>
<path fill-rule="evenodd" clip-rule="evenodd" d="M102.1 14.013C101.368 13.6209 100.374 13.438 99.2505 13.438C95.5908 13.438 92.8722 16.3657 92.8722 20.1038C92.8722 23.5805 95.1464 26.4297 98.3878 26.4297C99.773 26.4297 101.054 25.9853 102.1 24.8613L102.178 26.0637H105.184V8.52369H102.1V14.013ZM107.563 11.791H110.883V8.52344H107.563V11.791ZM127.299 11.791H130.619V8.52344H127.299V11.791ZM137.494 23.7633C136.344 23.7633 135.978 22.8224 135.978 21.4631V16.3657H139.873V13.6993H135.978V8.52369H132.867V21.6984C132.867 24.6782 134.096 26.4297 136.971 26.4297C138.487 26.4297 139.507 26.0115 140.762 25.0182L139.376 23.0052C138.67 23.5283 138.278 23.7633 137.494 23.7633ZM155.452 26.0637H158.563V8.52344H155.452V26.0637ZM37.1928 18.5874C35.4938 18.1955 34.2127 17.8818 34.2127 16.9931C34.2127 16.0782 35.1539 15.8691 36.1735 15.8691C37.4541 15.8691 38.6568 16.235 39.4148 16.9409L41.0356 14.7449C39.4933 13.5949 38.0296 13.2812 36.1735 13.2812C33.664 13.2812 31.102 14.6927 31.102 17.15C31.102 19.2933 32.8535 20.3913 35.0492 20.9403C36.9575 21.4369 38.1864 21.6462 38.1864 22.6655C38.1864 23.6329 37.1406 23.8679 35.9644 23.8679C34.6311 23.8679 33.3765 23.3974 32.4875 22.4565L30.6055 24.4692C31.8603 25.9593 34.0039 26.4821 35.9904 26.4821C38.8136 26.4821 41.2972 25.0966 41.2972 22.6393C41.2972 20.2345 39.6239 19.1889 37.1928 18.5874ZM77.214 13.2812C73.5543 13.2812 70.9403 16.026 70.9403 19.7379C70.9403 23.842 73.6065 26.4821 77.4752 26.4821C80.011 26.4821 81.6577 25.75 83.1479 24.2601L81.4487 22.378C80.3769 23.4498 78.9916 23.8157 77.5015 23.8157C75.6978 23.8157 74.3123 22.744 74.0248 20.8094H83.3045V20.3651C83.3045 16.1826 81.2396 13.2812 77.214 13.2812ZM112.844 20.0514C112.844 23.6589 115.118 26.0637 118.516 26.0637C119.875 26.0637 120.842 25.6978 121.888 24.8353V26.0897C121.888 27.8936 120.659 29.0176 119.039 29.0176C117.653 29.0176 116.529 28.6779 115.431 27.972L114.046 30.2462C115.405 31.2396 117.235 31.6577 119.143 31.6577C122.568 31.6577 124.972 29.5666 124.972 26.1422V14.5358C123.639 13.9608 121.836 13.438 119.849 13.438C115.693 13.438 112.844 16.1826 112.844 20.0514ZM140.918 20.2082C140.918 23.9726 143.166 26.4297 146.303 26.4297C147.898 26.4297 148.944 25.8547 149.937 24.8613L150.015 26.0637H153.047V14.562C151.244 13.804 149.335 13.438 147.898 13.438C143.951 13.438 140.918 16.1306 140.918 20.2082ZM63.8824 13.464C62.3138 13.464 61.033 13.9868 59.9352 15.0848L59.8565 13.6993H56.8505V31.3443H59.9352V25.7762C61.0854 26.2731 62.0785 26.4297 63.0719 26.4297C66.7838 26.4297 69.2674 23.502 69.2674 19.947C69.2674 16.2872 67.2806 13.464 63.8824 13.464ZM94.1268 13.7255C93.6825 13.5424 93.0291 13.464 92.3232 13.464C90.5977 13.464 89.3431 14.0652 88.3498 15.2414L88.2713 13.6993H85.2912V26.0637H88.4022V19.398C88.4022 17.5421 89.6044 16.5488 91.3558 16.5488C91.5651 16.5488 91.8004 16.5225 92.0355 16.5747C92.3754 15.6338 93.2119 14.4836 94.1268 13.7255ZM51.3349 20.3913C51.3349 22.1949 50.1325 23.7111 48.3548 23.7111C46.9171 23.7111 46.0284 22.718 46.0284 21.2278V13.6993H42.9177V21.254C42.9177 24.391 44.5907 26.3775 47.6752 26.3775C49.2698 26.3775 50.3678 25.75 51.3871 24.626L51.4658 26.0637H54.4456V13.6993H51.3349V20.3913ZM107.668 26.0637H110.778V13.6993H107.668V26.0637ZM127.404 26.0637H130.514V13.6993H127.404V26.0637ZM74.0248 18.5615C74.2864 16.9144 75.4101 15.8951 77.214 15.8951C78.9132 15.8951 80.1154 17.0975 80.1154 18.5615H74.0248ZM102.1 20.5744C102.1 22.378 100.976 23.7373 99.1983 23.7373C96.9763 23.7373 96.0089 22.0643 96.0089 20.1038C96.0089 17.908 97.316 16.1306 99.538 16.1306C100.714 16.1306 101.368 16.3132 102.1 16.7318V20.5744ZM121.888 16.5488V20.496C121.888 22.3256 120.895 23.3452 119.013 23.3452C116.948 23.3452 115.98 21.9075 115.98 19.9732C115.98 17.7512 117.575 16.1306 119.901 16.1306C120.712 16.1306 121.417 16.3132 121.888 16.5488ZM149.937 20.5744C149.937 22.378 148.865 23.7373 147.087 23.7373C145.022 23.7373 144.055 22.1165 144.055 20.1038C144.055 17.8556 145.493 16.1306 147.662 16.1306C148.578 16.1306 149.388 16.3132 149.937 16.5747V20.5744ZM62.7319 23.7373C61.4773 23.7373 60.5624 23.4758 59.9352 22.9792V19.372C59.9352 17.7512 61.3727 16.1563 63.0719 16.1563C65.3199 16.1563 66.1304 17.699 66.1304 19.947C66.1304 22.0381 64.7452 23.7373 62.7319 23.7373Z" fill="white"/>
</svg>